<svg xmlns="http://www.w3.org/2000/svg" xmlns:xlink="http://www.w3.org/1999/xlink" xmlns:inkscape="http://www.inkscape.org/namespaces/inkscape" version="1.1" width="891.618" height="396.008" viewBox="0 0 891.618 396.008">
<defs>
<clipPath id="clip_1">
<path transform="matrix(1,0,0,-1,0,396.008)" d="M0 396.008H891.618V0H0Z"/>
</clipPath>
</defs>
<g clip-path="url(#clip_1)">
<path transform="matrix(1,0,0,-1,366.4362,158.47)" d="M0 0C0 7.579-6.421 11.578-14.314 11.578-19.366 11.578-24.839 9.894-24.839 4.315V-11.261C-7.579-14.84 0-8.104 0 0M-39.784-32.731C-34.838-32.311-32.416-29.68-32.416-25.786V4.315C-32.416 8.525-35.047 10.841-39.784 11.262V12.103C-36.206 11.578-32.416 10.946-29.154 10.946-24.103 10.946-16.524 12.525-10.21 12.525 1.158 12.525 8.419 6.841 8.419 0 8.419-6.736 .947-10.946-8.525-12.523-6.526-13.892-4.315-16.208-2.211-18.207L7.577-27.89C10.103-30.205 13.05-32.942 17.786-32.416V-33.258C15.049-33.574 11.787-33.784 9.367-33.574 3.999-33.152 .209-31.257-2.947-27.574L-15.893-13.156C-18.839-13.156-21.892-13.05-24.839-12.629V-25.786C-24.839-29.68-22.313-32.311-17.576-32.731V-33.574C-21.261-32.626-24.839-32.311-28.628-32.416-32.416-32.522-36.101-32.836-39.784-33.574Z"/>
<path transform="matrix(1,0,0,-1,431.478,169.73059)" d="M0 0C0 15.26-9.472 22.839-19.998 22.839-31.259 22.839-37.258 13.786-37.258 1.579-37.258-13.472-27.786-21.681-17.262-21.681-5.894-21.681 0-11.998 0 0M-45.678 .211C-45.678 13.997-33.364 23.785-17.787 23.785-2.422 23.785 8.419 14.102 8.419 1.263 8.419-12.314-3.79-22.629-19.366-22.629-34.838-22.629-45.678-12.419-45.678 .211"/>
<path transform="matrix(1,0,0,-1,458.7347,191.20099)" d="M0 0C4.946 .42 7.261 3.051 7.261 6.945V15.049L-6.421 35.994C-8.315 39.047-11.473 43.361-16.524 43.993V44.834C-13.157 44.204-9.578 43.571-5.789 43.571-2.211 43.571 1.788 43.993 5.577 44.834V43.993C.947 43.466-.948 39.677 1.368 35.994L13.997 16.208 25.364 34.099C27.995 38.099 27.995 43.466 20.102 43.993V44.834C23.259 44.204 26.522 43.571 29.68 43.571 32.626 43.571 35.467 43.993 38.625 44.834V43.993C33.152 43.466 28.521 36.836 25.784 32.52L14.84 15.471V6.945C14.84 3.051 17.471 .42 22.206 0V-.843C18.523 .105 14.84 .42 11.05 .315 7.367 .209 3.683-.105 0-.843Z"/>
<path transform="matrix(1,0,0,-1,500.4112,177.4146)" d="M0 0H22.206L11.471 23.471ZM-14.84-13.786C-8.946-13.261-4.526-7.156-2.104-2.315L14.524 31.575H15.367L32.732-5.893C34.626-10.103 38.1-13.261 43.046-13.786V-14.629C39.363-13.997 35.469-13.366 31.679-13.472 27.47-13.577 23.996-13.892 20.207-14.629V-13.786C24.839-13.261 26.733-9.892 24.943-5.893L22.628-.841H-.316L-1.895-3.999C-3.999-8.313-3.369-13.261 4.526-13.786V-14.629C1.368-13.997-1.895-13.366-5.052-13.472-8.315-13.577-11.473-13.892-14.84-14.629Z"/>
<path transform="matrix(1,0,0,-1,573.8718,191.517)" d="M0 0H-16.103C-20.102 0-23.891 0-27.89-.527V.316C-22.944 .736-20.523 3.578-20.523 7.788V37.257C-20.523 41.256-22.944 43.887-27.89 44.309V45.15C-24.207 44.309-20.523 43.887-16.735 43.887-13.05 43.887-9.367 44.204-5.684 45.15V44.309C-10.419 43.887-12.945 41.256-12.945 37.257V4.421C-12.945 2.42-11.577 .841-9.051 .841H-.841C6.42 .841 10.524 5.262 13.682 13.261H14.524C12.63 8.42 11.157 3.683 13.156-.843 11.366-.316 8.104 0 0 0"/>
<path transform="matrix(1,0,0,-1,619.9651,169.836)" d="M0 0C0 14.945 12.63 24.101 28.522 24.101 35.153 24.101 38.732 22.523 42.626 20.733 43.678 20.207 45.046 19.786 46.52 19.891 44.73 16.208 43.889 12.103 43.994 7.788H43.151C41.468 18.418 33.154 23.049 25.155 23.049 15.051 23.049 8.42 14.735 8.42 1.263 8.42-13.366 16.313-21.576 26.102-21.576 35.469-21.576 41.468-15.261 45.678-2.947H46.52C46.099-7.368 47.047-11.157 48.73-14.524 47.677-14.42 46.625-14.735 45.362-15.577 43.467-16.84 37.153-22.524 24.839-22.524 10.42-22.524 0-13.577 0 0"/>
<path transform="matrix(1,0,0,-1,716.8964,158.47)" d="M0 0C0 7.579-6.42 11.578-14.313 11.578-19.366 11.578-24.838 9.894-24.838 4.315V-11.261C-7.577-14.84 0-8.104 0 0M-39.783-32.731C-34.837-32.311-32.416-29.68-32.416-25.786V4.315C-32.416 8.525-35.047 10.841-39.783 11.262V12.103C-36.205 11.578-32.416 10.946-29.153 10.946-24.101 10.946-16.524 12.525-10.208 12.525 1.158 12.525 8.42 6.841 8.42 0 8.42-6.736 .947-10.946-8.525-12.523-6.525-13.892-4.315-16.208-2.21-18.207L7.577-27.89C10.104-30.205 13.05-32.942 17.787-32.416V-33.258C15.051-33.574 11.787-33.784 9.367-33.574 3.999-33.152 .211-31.257-2.947-27.574L-15.892-13.156C-18.839-13.156-21.892-13.05-24.838-12.629V-25.786C-24.838-29.68-22.312-32.311-17.576-32.731V-33.574C-21.26-32.626-24.838-32.311-28.628-32.416-32.416-32.522-36.099-32.836-39.783-33.574Z"/>
<path transform="matrix(1,0,0,-1,767.2023,191.517)" d="M0 0H-18.312C-22.312 0-26.1 0-30.1-.527V.316C-25.154 .736-22.733 3.578-22.733 7.788V36.732C-22.733 41.362-25.364 43.887-30.1 44.309V45.15C-26.733 44.625-23.469 44.625-20.102 44.625H-.525C6.63 44.625 9.367 44.836 11.051 45.466 10.524 41.783 10.524 36.837 11.473 33.784H10.63C9.262 39.783 5.368 43.782-1.368 43.782H-11.261C-13.892 43.782-15.155 42.309-15.155 40.099V22.944H-4.21C1.052 22.944 3.999 25.891 4.526 31.153H5.368C4.421 25.048 4.421 18.734 5.368 13.997H4.526C3.999 19.47 1.052 22.101-4.21 22.101H-15.155V4.421C-15.155 2.42-13.786 .841-11.261 .841H-.841C6.316 .841 10.524 5.262 13.682 13.261H14.524C12.63 8.42 11.157 3.683 13.157-.843 11.367-.316 8.104 0 0 0"/>
<path transform="matrix(1,0,0,-1,789.5129,188.14969)" d="M0 0C1.788 2.947 2.842 9.683 3.157 14.629H4.105C3.051 3.79 9.578-3.367 18.312-3.367 27.049-3.367 31.468 1.79 31.468 5.473 31.468 16.629 2.736 17.051 2.736 31.259 2.736 36.732 9.367 42.204 20.102 42.204 24.943 42.204 28.732 41.363 32.52 41.363 34.521 41.363 35.257 41.363 37.257 41.572 35.678 38.1 35.153 33.784 35.257 28.522H34.31C34.31 36.521 28.626 41.363 21.154 41.363 14.945 41.363 9.892 37.889 9.892 33.364 9.892 22.839 38.941 20.418 38.941 8.841 38.941 1.684 31.995-4.21 18.628-4.21 13.577-4.21 4.105-3.051 0 0"/>
<path transform="matrix(1,0,0,-1,848.6591,191.0956)" d="M0 0C4.631 .42 7.263 3.051 7.263 6.945V39.361C7.263 41.362 5.894 43.046 3.369 43.046H1.263C-5.473 43.046-9.262 38.52-12.419 30.521H-13.261C-11.366 35.467-9.894 40.099-11.893 44.729-10.103 44.098-7.157 43.887 .421 43.887H21.576C29.258 43.887 32.1 44.098 33.995 44.729 31.995 40.099 33.363 35.467 35.363 30.521H34.522C31.259 38.52 27.575 43.046 20.734 43.046H18.839C16.313 43.046 14.84 41.362 14.84 39.361V6.945C14.84 3.051 17.471 .42 22.208 0V-.843C18.523-.105 14.734 .315 11.051 .315 7.368 .315 3.683-.105 0-.843Z"/>
<path transform="matrix(1,0,0,-1,324.9897,232.5665)" d="M0 0C0 7.99 6.657 13.374 16.268 13.374 19.452 13.374 20.958 12.795 23.852 11.695 24.546 11.406 25.241 11.173 26.052 11.231 25.068 9.205 24.605 7.006 24.663 4.574H24.199C23.388 10.363 18.641 12.795 14.357 12.795 8.394 12.795 4.631 7.932 4.631 .464 4.631-7.757 9.205-11.751 14.589-11.751 19.394-11.751 22.52-8.394 22.52-4.863V-3.532C22.52-1.215 21.073 .058 18.468 .29V.753C20.841 .406 22.636 .058 24.605 .116 26.631 .173 28.657 .348 30.683 .753V.29C27.962 .058 26.689-1.215 26.689-3.532V-9.725C25.878-8.973 25.068-8.741 24.315-8.741 21.651-8.741 20.089-12.273 13.663-12.273 6.368-12.273 0-7.815 0 0"/>
<path transform="matrix(1,0,0,-1,375.0618,244.3757)" d="M0 0H-10.074C-12.273 0-14.357 0-16.558-.29V.173C-13.836 .405-12.504 1.968-12.504 4.283V20.204C-12.504 22.751-13.952 24.141-16.558 24.373V24.835C-14.705 24.546-12.91 24.546-11.058 24.546H-.289C3.647 24.546 5.153 24.662 6.079 25.01 5.789 22.982 5.789 20.261 6.311 18.584H5.847C5.095 21.883 2.952 24.083-.753 24.083H-6.195C-7.642 24.083-8.337 23.273-8.337 22.056V12.62H-2.315C.579 12.62 2.199 14.241 2.49 17.136H2.952C2.432 13.777 2.432 10.305 2.952 7.699H2.49C2.199 10.709 .579 12.157-2.315 12.157H-8.337V2.431C-8.337 1.331-7.584 .462-6.195 .462H-.462C3.474 .462 5.789 2.894 7.526 7.293H7.99C6.948 4.631 6.137 2.026 7.237-.464 6.253-.175 4.458 0 0 0"/>
<path transform="matrix(1,0,0,-1,386.8672,244.2023)" d="M0 0C3.358 .347 4.98 2.663 4.98 6.136V21.362C3.416 22.984 2.721 23.968 .464 24.199V24.662C3.127 24.141 5.673 24.083 7.816 24.373L26.515 5.442V18.004C26.515 21.478 24.779 23.793 21.595 24.199V24.662C25.474 23.793 28.02 23.793 31.958 24.662V24.199C28.599 23.793 26.978 21.478 26.978 18.004V-.173H26.515L5.442 20.899V6.136C5.442 2.663 7.179 .347 10.363 0V-.464C6.484 .347 3.936 .347 0-.464Z"/>
<path transform="matrix(1,0,0,-1,439.5447,244.3757)" d="M0 0H-10.074C-12.273 0-14.357 0-16.558-.29V.173C-13.836 .405-12.504 1.968-12.504 4.283V20.204C-12.504 22.751-13.952 24.141-16.558 24.373V24.835C-14.705 24.546-12.91 24.546-11.058 24.546H-.289C3.647 24.546 5.153 24.662 6.079 25.01 5.789 22.982 5.789 20.261 6.311 18.584H5.847C5.095 21.883 2.952 24.083-.753 24.083H-6.195C-7.642 24.083-8.337 23.273-8.337 22.056V12.62H-2.315C.579 12.62 2.199 14.241 2.49 17.136H2.952C2.432 13.777 2.432 10.305 2.952 7.699H2.49C2.199 10.709 .579 12.157-2.315 12.157H-8.337V2.431C-8.337 1.331-7.584 .462-6.195 .462H-.462C3.474 .462 5.789 2.894 7.526 7.293H7.99C6.948 4.631 6.137 2.026 7.237-.464 6.253-.175 4.458 0 0 0"/>
<path transform="matrix(1,0,0,-1,473.6966,226.1982)" d="M0 0C0 4.169-3.53 6.368-7.873 6.368-10.652 6.368-13.662 5.442-13.662 2.374V-6.195C-4.168-8.163 0-4.458 0 0M-21.883-18.004C-19.162-17.773-17.831-16.325-17.831-14.183V2.374C-17.831 4.689-19.277 5.964-21.883 6.195V6.657C-19.915 6.368-17.831 6.021-16.036 6.021-13.257 6.021-9.088 6.89-5.616 6.89 .637 6.89 4.631 3.763 4.631 0 4.631-3.705 .522-6.02-4.689-6.889-3.59-7.642-2.373-8.915-1.215-10.016L4.169-15.341C5.558-16.615 7.179-18.12 9.784-17.831V-18.294C8.279-18.468 6.484-18.584 5.153-18.468 2.201-18.237 .116-17.193-1.62-15.167L-8.741-7.237C-10.363-7.237-12.042-7.179-13.662-6.947V-14.183C-13.662-16.325-12.273-17.773-9.668-18.004V-18.468C-11.694-17.946-13.662-17.773-15.747-17.831-17.831-17.889-19.857-18.062-21.883-18.468Z"/>
<path transform="matrix(1,0,0,-1,489.7287,236.61859)" d="M0 0H12.215L6.309 12.91ZM-8.163-7.584C-4.922-7.295-2.49-3.936-1.159-1.273L7.988 17.368H8.452L18.004-3.243C19.046-5.558 20.956-7.295 23.678-7.584V-8.048C21.651-7.699 19.51-7.352 17.425-7.41 15.11-7.468 13.199-7.642 11.115-8.048V-7.584C13.662-7.295 14.704-5.442 13.72-3.243L12.446-.464H-.175L-1.043-2.199C-2.201-4.574-1.853-7.295 2.489-7.584V-8.048C.752-7.699-1.043-7.352-2.779-7.41-4.574-7.468-6.311-7.642-8.163-8.048Z"/>
<path transform="matrix(1,0,0,-1,530.132,244.3757)" d="M0 0H-8.857C-11.058 0-13.141 0-15.341-.29V.173C-12.62 .405-11.289 1.968-11.289 4.283V20.494C-11.289 22.693-12.62 24.141-15.341 24.373V24.835C-13.315 24.373-11.289 24.141-9.205 24.141-7.178 24.141-5.152 24.315-3.126 24.835V24.373C-5.731 24.141-7.12 22.693-7.12 20.494V2.431C-7.12 1.331-6.368 .462-4.978 .462H-.463C3.532 .462 5.79 2.894 7.526 7.293H7.99C6.948 4.631 6.137 2.026 7.237-.464 6.253-.175 4.458 0 0 0"/>
<path transform="matrix(1,0,0,-1,555.4822,232.4509)" d="M0 0C0 8.221 6.948 13.258 15.689 13.258 19.336 13.258 21.305 12.39 23.448 11.406 24.026 11.115 24.779 10.884 25.589 10.942 24.605 8.916 24.141 6.659 24.199 4.285H23.737C22.81 10.131 18.237 12.679 13.836 12.679 8.279 12.679 4.631 8.105 4.631 .695 4.631-7.352 8.974-11.867 14.358-11.867 19.51-11.867 22.81-8.394 25.125-1.62H25.589C25.358-4.052 25.878-6.136 26.805-7.988 26.226-7.931 25.647-8.104 24.952-8.568 23.91-9.263 20.436-12.389 13.663-12.389 5.731-12.389 0-7.468 0 0"/>
<path transform="matrix(1,0,0,-1,612.0384,232.3931)" d="M0 0C0 8.396-5.21 12.563-11 12.563-17.193 12.563-20.494 7.585-20.494 .868-20.494-7.41-15.283-11.925-9.494-11.925-3.241-11.925 0-6.6 0 0M-25.125 .117C-25.125 7.701-18.351 13.085-9.783 13.085-1.331 13.085 4.631 7.758 4.631 .695 4.631-6.773-2.084-12.446-10.652-12.446-19.162-12.446-25.125-6.831-25.125 .117"/>
<path transform="matrix(1,0,0,-1,621.2961,244.2023)" d="M0 0C3.358 .347 4.98 2.663 4.98 6.136V21.362C3.416 22.984 2.721 23.968 .464 24.199V24.662C3.127 24.141 5.673 24.083 7.816 24.373L26.515 5.442V18.004C26.515 21.478 24.779 23.793 21.595 24.199V24.662C25.474 23.793 28.02 23.793 31.958 24.662V24.199C28.599 23.793 26.978 21.478 26.978 18.004V-.173H26.515L5.442 20.899V6.136C5.442 2.663 7.179 .347 10.363 0V-.464C6.484 .347 3.936 .347 0-.464Z"/>
<path transform="matrix(1,0,0,-1,663.3207,244.1445)" d="M0 0C2.548 .231 3.994 1.679 3.994 3.821V21.651C3.994 22.751 3.243 23.677 1.853 23.677H.695C-3.01 23.677-5.094 21.189-6.831 16.789H-7.295C-6.253 19.51-5.442 22.057-6.542 24.604-5.558 24.257-3.936 24.141 .231 24.141H11.868C16.094 24.141 17.657 24.257 18.699 24.604 17.599 22.057 18.352 19.51 19.452 16.789H18.99C17.195 21.189 15.167 23.677 11.404 23.677H10.363C8.974 23.677 8.163 22.751 8.163 21.651V3.821C8.163 1.679 9.61 .231 12.215 0V-.464C10.189-.058 8.105 .173 6.079 .173 4.052 .173 2.026-.058 0-.464Z"/>
<path transform="matrix(1,0,0,-1,707.893,226.1982)" d="M0 0C0 4.169-3.53 6.368-7.873 6.368-10.652 6.368-13.662 5.442-13.662 2.374V-6.195C-4.168-8.163 0-4.458 0 0M-21.883-18.004C-19.162-17.773-17.831-16.325-17.831-14.183V2.374C-17.831 4.689-19.277 5.964-21.883 6.195V6.657C-19.915 6.368-17.831 6.021-16.036 6.021-13.257 6.021-9.088 6.89-5.616 6.89 .637 6.89 4.631 3.763 4.631 0 4.631-3.705 .522-6.02-4.689-6.889-3.59-7.642-2.373-8.915-1.215-10.016L4.169-15.341C5.558-16.615 7.179-18.12 9.784-17.831V-18.294C8.279-18.468 6.484-18.584 5.153-18.468 2.201-18.237 .116-17.193-1.62-15.167L-8.741-7.237C-10.363-7.237-12.042-7.179-13.662-6.947V-14.183C-13.662-16.325-12.273-17.773-9.668-18.004V-18.468C-11.694-17.946-13.662-17.773-15.747-17.831-17.831-17.889-19.857-18.062-21.883-18.468Z"/>
<path transform="matrix(1,0,0,-1,723.925,236.61859)" d="M0 0H12.215L6.311 12.91ZM-8.163-7.584C-4.92-7.295-2.49-3.936-1.158-1.273L7.99 17.368H8.452L18.004-3.243C19.047-5.558 20.958-7.295 23.679-7.584V-8.048C21.651-7.699 19.51-7.352 17.426-7.41 15.11-7.468 13.199-7.642 11.115-8.048V-7.584C13.663-7.295 14.705-5.442 13.721-3.243L12.446-.464H-.173L-1.042-2.199C-2.199-4.574-1.853-7.295 2.49-7.584V-8.048C.753-7.699-1.042-7.352-2.779-7.41-4.574-7.468-6.311-7.642-8.163-8.048Z"/>
<path transform="matrix(1,0,0,-1,748.6406,232.4509)" d="M0 0C0 8.221 6.948 13.258 15.689 13.258 19.336 13.258 21.305 12.39 23.448 11.406 24.026 11.115 24.779 10.884 25.589 10.942 24.605 8.916 24.141 6.659 24.199 4.285H23.737C22.81 10.131 18.237 12.679 13.836 12.679 8.279 12.679 4.631 8.105 4.631 .695 4.631-7.352 8.974-11.867 14.358-11.867 19.51-11.867 22.81-8.394 25.125-1.62H25.589C25.358-4.052 25.878-6.136 26.805-7.988 26.226-7.931 25.647-8.104 24.952-8.568 23.91-9.263 20.436-12.389 13.663-12.389 5.731-12.389 0-7.468 0 0"/>
<path transform="matrix(1,0,0,-1,785.9773,244.1445)" d="M0 0C2.546 .231 3.994 1.679 3.994 3.821V21.651C3.994 22.751 3.241 23.677 1.853 23.677H.694C-3.011 23.677-5.095 21.189-6.832 16.789H-7.295C-6.253 19.51-5.442 22.057-6.542 24.604-5.558 24.257-3.938 24.141 .231 24.141H11.867C16.094 24.141 17.657 24.257 18.699 24.604 17.599 22.057 18.351 19.51 19.452 16.789H18.988C17.193 21.189 15.167 23.677 11.404 23.677H10.363C8.973 23.677 8.162 22.751 8.162 21.651V3.821C8.162 1.679 9.61 .231 12.215 0V-.464C10.189-.058 8.104 .173 6.078 .173 4.052 .173 2.026-.058 0-.464Z"/>
<path transform="matrix(1,0,0,-1,808.6655,244.2023)" d="M0 0C2.721 .231 4.053 1.679 4.053 3.821V20.32C4.053 22.636 2.605 23.968 0 24.199V24.662C2.026 24.315 4.053 23.968 6.137 23.968 8.163 24.026 10.189 24.199 12.215 24.662V24.199C9.494 23.968 8.221 22.636 8.221 20.32V3.821C8.221 1.679 9.611 .231 12.215 0V-.464C10.189 .058 8.163 .231 6.137 .173 4.053 .116 2.026-.058 0-.464Z"/>
<path transform="matrix(1,0,0,-1,825.0458,244.2023)" d="M0 0C3.358 .347 4.98 2.663 4.98 6.136V21.362C3.416 22.984 2.721 23.968 .464 24.199V24.662C3.127 24.141 5.673 24.083 7.816 24.373L26.515 5.442V18.004C26.515 21.478 24.779 23.793 21.595 24.199V24.662C25.474 23.793 28.02 23.793 31.958 24.662V24.199C28.599 23.793 26.978 21.478 26.978 18.004V-.173H26.515L5.442 20.899V6.136C5.442 2.663 7.179 .347 10.363 0V-.464C6.484 .347 3.936 .347 0-.464Z"/>
<path transform="matrix(1,0,0,-1,860.9346,232.5665)" d="M0 0C0 7.99 6.657 13.374 16.268 13.374 19.452 13.374 20.958 12.795 23.852 11.695 24.546 11.406 25.241 11.173 26.052 11.231 25.068 9.205 24.605 7.006 24.663 4.574H24.199C23.388 10.363 18.641 12.795 14.357 12.795 8.394 12.795 4.631 7.932 4.631 .464 4.631-7.757 9.205-11.751 14.589-11.751 19.394-11.751 22.52-8.394 22.52-4.863V-3.532C22.52-1.215 21.073 .058 18.468 .29V.753C20.841 .406 22.636 .058 24.605 .116 26.631 .173 28.657 .348 30.683 .753V.29C27.962 .058 26.689-1.215 26.689-3.532V-9.725C25.878-8.973 25.068-8.741 24.315-8.741 21.651-8.741 20.089-12.273 13.663-12.273 6.368-12.273 0-7.815 0 0"/>
<path transform="matrix(1,0,0,-1,176.0208,76.28848)" d="M0 0C-1.127 1.142-2.3 2.146-3.516 3H-14.585-32.526C-34.248 2.162-35.848 1.165-37.271 0H-14.585Z"/>
<path transform="matrix(1,0,0,-1,204.968,76.28848)" d="M0 0H65.468V-175.165C65.468-182.506 64.617-189.49 62.934-196.072 63.4-197.85 63.931-199.62 64.528-201.385 67.042-193.591 68.468-184.897 68.468-175.165V3H-3.182C-2.092 2.052-1.031 1.052 0 0"/>
<path transform="matrix(1,0,0,-1,178.731,342.1603)" d="M0 0C-8.477-2.632-14.151-4.394-17.295-6.453-20.439-4.394-26.113-2.632-34.591 0-39.749 1.602-45.797 3.487-52.263 5.787-53.723 5.822-55.194 5.842-56.677 5.842-58.067 5.842-59.467 5.819-60.869 5.79-37.572-3.365-17.295-6.78-17.295-11.112-17.295-6.536 5.327-2.984 30.236 7.391 29.219 8.014 28.222 8.688 27.247 9.416 17.216 5.349 7.642 2.373 0 0"/>
<path transform="matrix(1,0,0,-1,52.4357,76.28848)" d="M0 0H43.667C42.264 1.191 40.605 2.191 38.692 3H-3V-111.031C-2.332-105.468-1.33-100.049 0-94.791Z"/>
<path transform="matrix(1,0,0,-1,260.007,296.63)" d="M0 0C-2.317-1.638-4.679-3.206-7.077-4.711-11.625-10.104-17.06-15.104-23.344-19.652-24.59-20.554-25.856-21.425-27.135-22.272-26.509-23.059-25.861-23.829-25.189-24.577-15.384-18.037-6.376-9.906 .473 .337 .354 .251 .224 .17 .109 .081Z"/>
<path transform="matrix(1,0,0,-1,98.1198,323.8283)" d="M0 0C-4.076 2.277-8.082 4.774-11.912 7.546-22.264 15.04-30.33 23.753-35.883 33.444-42.386 44.793-45.684 57.891-45.684 72.374V85.937C-47.014 91.267-48.016 96.782-48.684 102.467V72.374C-48.684 34.01-26.673 11.658-2.168-2.232-1.385-1.568-.658-.825 0 0"/>
<path transform="matrix(1,0,0,-1,130.9247,318.537)" d="M0 0C-9.351 2.759-18.062 6.436-26.05 10.969V6.768C-26.05 1.43-27.415-3.133-30.127-6.756-30.74-7.576-31.415-8.352-32.169-9.072-36.094-12.821-41.913-15.194-49.69-15.854V-18.558C-39.856-16.59-30.016-15.339-19.986-14.97-17.963-14.896-15.934-14.844-13.894-14.844-13.416-14.833-12.945-14.836-12.469-14.827 .856-14.592 13.6-15.621 26.964-18.558V-15.854C12.844-14.573 3.618-8.984 0 0"/>
<path transform="matrix(1,0,0,-1,267.9084,282.10029)" d="M0 0C-.564 1.459-1.09 2.938-1.577 4.438-4.796 14.366-6.256 25.213-5.111 37.261H-8.399C-16.583 12.253-29.059-7.316-44.819-19.846L-40.668-27.873C-40.521-28.157-40.349-28.466-40.183-28.769-29.314-24.385-19.081-18.76-9.634-12.081-9.623-12.072-9.609-12.065-9.598-12.056-8.066-10.871-6.252-9.912-4.364-9.206-1.694-8.208 1.124-7.73 3.527-7.97 2.232-5.38 1.053-2.724 0 0"/>
<path transform="matrix(1,0,0,-1,192.0004,316.4064)" d="M0 0C-4.237-.793-8.6-1.216-13.089-1.216-30.291-1.216-46.08 2.928-59.636 11.031-60.708 11.672-61.77 12.33-62.814 13.02-72.183 19.219-80.383 27.422-87.125 37.559-87.186 37.649-87.243 37.744-87.303 37.835-88.339 39.407-89.337 41.029-90.303 42.691-101.32 61.654-107.667 86.581-107.667 117.214-107.667 147.467-101.543 172.401-90.303 191.135V210.469C-117.021 192.512-135.237 164.89-139.565 129.081-140.219 123.665-140.565 118.066-140.565 112.28-140.565 106.403-140.219 100.71-139.565 95.2-135.299 59.299-117.47 31.404-90.303 14.282-89.315 13.659-88.315 13.052-87.303 12.458-87.243 12.423-87.186 12.385-87.125 12.35-79.464 7.874-71.126 4.199-62.165 1.427-60.994 1.064-59.795 .744-58.604 .412-46.111-3.07-32.523-4.915-18.023-4.915-11.182-4.915-4.485-4.408 2.066-3.486 1.364-2.382 .675-1.22 0 0"/>
<path transform="matrix(1,0,0,-1,232.2697,322.861)" d="M0 0C-.675 .765-1.324 1.545-1.945 2.333-3.451 4.245-4.794 6.196-5.937 8.057-6.495 8.966-6.995 9.844-7.453 10.694-7.474 10.733-7.498 10.774-7.519 10.813-7.629 11.017-7.751 11.23-7.855 11.43L-11.76 18.981-13.257 21.876-53.779 100.244C-57.831 108.348-62.897 113.076-71.339 117.128-35.209 118.142-11.569 150.558-11.569 195.81-11.569 205.342-13.127 214.281-15.95 222.303-24.71 227.65-34.537 231.103-44.421 232.765-40.713 223.131-38.585 210.943-38.585 196.82-38.585 140.764-65.263 106.658-103.083 127.256V221.816 225.591 230.924 231.348 232.616C-103.083 233.305-103.007 233.942-102.955 234.595-102.56 239.568-100.698 243.498-97.943 246.573-96.951 247.679-95.849 248.681-94.651 249.573-88.05 254.483-78.71 256.256-71.001 256.256-65.054 256.256-59.65 253.898-55.026 249.573-54.048 248.658-53.103 247.66-52.198 246.573-51.508 245.743-50.837 244.868-50.191 243.942-48.51 243.984-46.836 244.038-45.132 244.038-39.315 244.038-33.673 243.72-28.14 243.114-29.248 244.327-30.406 245.48-31.61 246.573-32.78 247.634-33.998 248.633-35.256 249.573-43.225 255.524-52.912 258.956-63.911 258.956-82.147 258.956-95.317 253.89-115.239 253.89-128.409 253.89-139.555 255.58-151.035 257.604V254.904C-144.337 254.308-138.956 252.529-135.027 249.573-133.843 248.682-132.8 247.677-131.885 246.573-128.944 243.023-127.395 238.377-127.395 232.616V223.033 219.525 218.998 202.537 196.684 49.943C-120.922 38.968-112.764 29.955-103.083 23.178V123.541C-98.355 121.518-93.627 120.166-89.237 119.152L-39.599 12.105C-39.276 11.419-38.937 10.772-38.603 10.115-38.092 9.111-37.569 8.142-37.032 7.205-36.288 5.907-35.529 4.651-34.738 3.479-34.706 3.431-34.673 3.387-34.641 3.34-34.003 2.4-33.349 1.502-32.682 .641-29.72-3.181-26.48-6.211-23.043-8.529-22-9.232-20.94-9.868-19.863-10.439-15.724-12.634-11.347-13.878-6.841-14.234 2.277-14.573 11.395-14.234 20.175-13.22V-10.521C12.624-11.357 5.472-6.207 0 0"/>
<path transform="matrix(1,0,0,-1,262.7971,98.44571)" d="M0 0C-5.757-.412-11.103 1.23-15.214 3.288-26.923 8.633-38.639 12.393-51.228 14.489-52.681 14.731-54.17 14.908-55.647 15.105-62.047 15.96-68.661 16.444-75.659 16.444-76.695 16.444-77.716 16.403-78.746 16.386-79.964 16.366-81.187 16.362-82.396 16.319-99.476 15.709-115.656 12.756-130.432 7.644V2.99C-118.456 9.398-104.491 12.745-88.82 12.745-85.964 12.745-83.062 12.587-80.141 12.285-78.888 12.156-77.632 12.001-76.374 11.815-66.777 10.397-57.106 7.325-48.285 2.54-46.775 1.721-45.284 .866-43.829-.055-28.332-9.858-16.216-25.438-13.156-47.289H-9.868C-10.28-30.022-6.987-14.396 0 0"/>
<path transform="matrix(1,0,0,-1,322.1291,343.2493)" d="M0 0C2.495 3.176 3.879 9.559 1.963 14.001 .859 16.562-1.184 18.215-4.123 18.929-3.094 12.671-4.631 6.315-8.55 .815-14.294-7.246-24.318-12.378-36.052-13.265-36.789-13.33-37.469-12.82-37.63-12.09-37.79-11.36-37.389-10.624-36.688-10.363-17.535-3.226-10.447 11.185-13.502 21.12-15.865 27.8-20.576 32.499-27.885 35.427-38.854 39.585-53.158 36.684-58.062 24.608-60.158 18.312-58.148 10.206-48.856 6.489-46.037 5.416-43.702 5.29-41.938 6.126-40.015 7.037-39.139 8.938-38.788 9.988-38.776 10.022-38.764 10.057-38.75 10.09-38.111 11.625-38.061 13.052-38.601 14.333-39.228 15.819-40.428 16.651-41.08 16.929-44.278 17.867-46.248 16.671-46.784 15.062-47.004 14.404-47.65 13.984-48.337 14.043-49.028 14.103-49.587 14.629-49.69 15.314-50.281 19.243-49.056 22.746-46.329 24.925-43.275 27.366-38.711 27.844-34.414 26.169-26.616 22.962-22.9 14.354-25.929 6.562-31.168-7.412-47.326-7.248-86.371-6.843H-86.377C-88.624-6.843-91.028-6.81-93.532-6.774-96.198-6.737-98.989-6.698-101.844-6.698-121.815-6.698-144.99-8.604-151.605-26.346-155.546-36.989-151.979-48.195-143.65-51.321-139.099-53.14-129.739-54.548-126.695-46.948-125.271-42.951-125.332-37.548-130.257-35.651-134.344-34.084-138.422-35.822-143.478-41.293-143.877-41.726-144.493-41.884-145.05-41.7-145.608-41.516-146.007-41.022-146.071-40.438-146.721-34.468-145.069-29.466-141.16-25.571-129.692-14.146-102.047-15.361-86.589-17.102-77.242-17.849-63.974-20.029-51.686-22.83L-50.86-19.804C-50.648-19.029-49.865-18.553-49.079-18.737-35.341-21.876-27.397-22.188-18.387-19.854V-12.171C-18.387-11.619-18.084-11.112-17.599-10.851-16.111-10.049-14.551-9.423-12.9-8.76-8.595-7.032-4.144-5.246 0 0"/>
<path transform="matrix(1,0,0,-1,146.4768,394.5823)" d="M0 0C8.36 3.138 11.93 14.343 7.987 24.991 .42 45.265-28.774 44.855-50.085 44.559-52.591 44.523-54.998 44.49-57.261 44.49-96.288 44.087-112.448 43.921-117.694 57.913-120.716 65.688-117 74.295-109.229 77.492-104.906 79.176-100.341 78.699-97.287 76.258-94.561 74.079-93.335 70.576-93.926 66.647-94.029 65.962-94.588 65.436-95.279 65.376-95.972 65.316-96.612 65.736-96.832 66.395-97.369 68.004-99.339 69.2-102.537 68.262-103.188 67.984-104.388 67.152-105.015 65.666-105.555 64.385-105.505 62.958-104.866 61.423-104.852 61.39-104.84 61.355-104.828 61.321-104.477 60.271-103.601 58.37-101.678 57.459-99.914 56.624-97.579 56.748-94.737 57.831-85.473 61.537-83.462 69.645-85.588 76.032-90.458 88.016-104.761 90.92-115.757 86.75-123.04 83.832-127.751 79.133-130.133 72.394-133.169 62.517-126.083 48.106-106.933 40.97-106.232 40.709-105.831 39.973-105.991 39.243-106.152 38.514-106.831 38.012-107.569 38.068-119.3 38.955-129.322 44.087-135.065 52.147-138.985 57.648-140.522 64.003-139.494 70.262-142.432 69.548-144.475 67.896-145.58 65.334-147.495 60.893-146.111 54.509-143.616 51.333-139.474 46.088-135.021 44.301-130.716 42.573-129.065 41.91-127.505 41.284-126.018 40.482-125.532 40.221-125.229 39.714-125.229 39.162V31.479C-116.218 29.145-108.276 29.458-94.537 32.596-93.752 32.78-92.967 32.304-92.756 31.529L-91.93 28.503C-79.642 31.304-66.372 33.484-56.979 34.236-41.568 35.975-13.924 37.188-2.458 25.762 1.45 21.866 3.102 16.864 2.45 10.895 2.386 10.311 1.986 9.817 1.428 9.633 .87 9.448 .255 9.608-.144 10.04-4.014 14.232-7.312 16.234-10.482 16.234-11.449 16.234-12.404 16.048-13.36 15.681-18.29 13.783-18.349 8.381-16.901 4.332-14.101-2.667-5.257-2.1 0 0"/>
<path transform="matrix(1,0,0,-1,190.4353,17.198884)" d="M0 0 4.725-6.252-1.268-17.488-7.375-6.277-3.816-1.567-9.941 6.536-16.065-1.567-12.506-6.277-21.109-22.07-26.005-1.567-19.881 6.536-27.941 17.199-36 6.536-29.876-1.567-34.772-22.07-43.375-6.277-39.816-1.567-45.941 6.536-52.065-1.567-48.506-6.277-54.613-17.488-60.606-6.252-55.881 0-63.941 10.663V0-10.663-27.213-33.749H-45.941-9.941 8.059V-27.213-10.663 0 10.663Z"/>
</g>
</svg>
